<svg width="110" height="33" viewBox="0 0 110 33" fill="none" xmlns="http://www.w3.org/2000/svg">
<g clip-path="url(#clip0_8005_20)">
<path d="M0 7.20427H3.04291V13.3026H3.14434C3.39227 12.2185 3.77546 11.2586 4.29388 10.4229C4.8123 9.58716 5.42088 8.88698 6.11962 8.32231C6.81837 7.73506 7.596 7.29461 8.45251 7.00099C9.33158 6.70736 10.2445 6.56055 11.1912 6.56055C12.2279 6.56055 13.2423 6.74124 14.234 7.10263C15.2484 7.44143 16.15 7.98351 16.9388 8.72887C17.7277 9.45164 18.3589 10.3664 18.8322 11.4732C19.3281 12.5573 19.576 13.8447 19.576 15.3355C19.576 16.8488 19.3394 18.1588 18.866 19.2655C18.4152 20.3723 17.8066 21.287 17.0403 22.0099C16.274 22.7326 15.3948 23.2747 14.4031 23.6361C13.4339 23.9749 12.4421 24.1443 11.4278 24.1443C10.436 24.1443 9.48935 24.0088 8.58775 23.7378C7.70869 23.4667 6.90852 23.0601 6.18724 22.5181C5.46596 21.9534 4.84611 21.2645 4.32769 20.4513C3.80927 19.6156 3.41482 18.6445 3.14434 17.5376H3.04291L3.11052 32.1061H0.0338099L0 7.20427ZM3.14434 15.3693C3.14434 16.0018 3.27958 16.6794 3.55006 17.4022C3.84307 18.1249 4.27134 18.8025 4.83484 19.435C5.39833 20.0448 6.10835 20.553 6.96487 20.9595C7.84393 21.3661 8.86951 21.5694 10.0416 21.5694C11.1461 21.5694 12.1153 21.4 12.9493 21.0612C13.7832 20.7224 14.4819 20.2707 15.0455 19.706C15.609 19.1188 16.0372 18.4524 16.3302 17.7071C16.6233 16.9617 16.7697 16.1825 16.7697 15.3693C16.7697 14.5788 16.6233 13.8109 16.3302 13.0655C16.0598 12.2976 15.6315 11.6199 15.0455 11.0327C14.4819 10.4455 13.7607 9.98243 12.8816 9.64363C12.0251 9.28224 11.0108 9.10156 9.83873 9.10156C8.71172 9.10156 7.73124 9.30483 6.89725 9.71139C6.06327 10.118 5.36453 10.6375 4.80102 11.2699C4.23753 11.9023 3.82054 12.5912 3.55006 13.3365C3.27958 14.0594 3.14434 14.7369 3.14434 15.3693Z" fill="white"/>
<path d="M35.5715 23.8728L35.7405 15.4028H35.6391C35.2784 16.5547 34.8164 17.6614 34.2529 18.723C33.6894 19.762 33.0357 20.688 32.2919 21.5011C31.5481 22.3143 30.7141 22.958 29.7899 23.4324C28.8883 23.9067 27.9079 24.1438 26.8485 24.1438C26.1046 24.1438 25.4059 24.0083 24.7522 23.7373C24.0986 23.4663 23.5238 23.1048 23.0279 22.6531C22.5546 22.1788 22.1714 21.6367 21.8784 21.0268C21.6079 20.417 21.4727 19.7733 21.4727 19.0957C21.4727 18.1018 21.7206 17.2661 22.2165 16.5886C22.7349 15.8884 23.3998 15.3124 24.2113 14.8607C25.0453 14.3864 25.9694 14.0137 26.9838 13.7427C28.0205 13.449 29.0574 13.2006 30.0943 12.9973C31.1536 12.7714 32.1679 12.5681 33.1371 12.3875C34.1064 12.1841 34.9403 11.947 35.6391 11.6759V9.81256H23.2308V7.16992H38.4116V23.8728H35.5715ZM24.5494 18.994C24.5494 19.7168 24.8198 20.338 25.3608 20.8575C25.9244 21.3544 26.6343 21.6028 27.4908 21.6028C28.3474 21.6028 29.1588 21.4334 29.9252 21.0946C30.714 20.7332 31.4467 20.2476 32.1228 19.6378C32.8216 19.0279 33.4527 18.3278 34.0162 17.5372C34.6023 16.7241 35.1207 15.8545 35.5715 14.9285V14.1831C34.9854 14.3864 34.298 14.5784 33.509 14.759C32.7427 14.9172 31.9538 15.0752 31.1423 15.2334C30.3309 15.3915 29.5307 15.5721 28.7419 15.7755C27.9529 15.9561 27.2429 16.1933 26.6118 16.4869C26.0033 16.7579 25.5074 17.0968 25.1242 17.5034C24.7409 17.9099 24.5494 18.4068 24.5494 18.994Z" fill="white"/>
<path d="M41.127 7.16969H44.3052L44.2037 13.7763H44.339C44.5869 12.7599 44.9701 11.8 45.4885 10.8965C46.0069 9.97044 46.6605 9.17991 47.4495 8.52489C48.2384 7.84729 49.1625 7.33909 50.2219 7.00029C51.3038 6.66149 52.521 6.54856 53.8734 6.66149V9.94785C52.3857 9.58646 51.0446 9.55259 49.85 9.84621C48.6553 10.1173 47.641 10.569 46.8071 11.2014C45.9956 11.8113 45.3645 12.5227 44.9137 13.3358C44.4854 14.1489 44.2714 14.9057 44.2714 15.6058L44.2037 23.8725H41.127V7.16969Z" fill="white"/>
<path d="M69.0695 23.8728L69.2386 15.4028H69.1371C68.7765 16.5547 68.3145 17.6614 67.7509 18.723C67.1874 19.762 66.5338 20.688 65.7899 21.5011C65.0461 22.3143 64.2122 22.958 63.288 23.4324C62.3864 23.9067 61.4059 24.1438 60.3465 24.1438C59.6027 24.1438 58.9039 24.0083 58.2503 23.7373C57.5966 23.4663 57.0219 23.1048 56.5261 22.6531C56.0527 22.1788 55.6695 21.6367 55.3765 21.0268C55.106 20.417 54.9707 19.7733 54.9707 19.0957C54.9707 18.1018 55.2186 17.2661 55.7145 16.5886C56.233 15.8884 56.8979 15.3124 57.7094 14.8607C58.5433 14.3864 59.4675 14.0137 60.4818 13.7427C61.5187 13.449 62.5555 13.2006 63.5923 12.9973C64.6517 12.7714 65.666 12.5681 66.6353 12.3875C67.6045 12.1841 68.4385 11.947 69.1371 11.6759V9.81256H56.7289V7.16992H71.9096V23.8728H69.0695ZM58.0474 18.994C58.0474 19.7168 58.318 20.338 58.859 20.8575C59.4224 21.3544 60.1324 21.6028 60.9889 21.6028C61.8455 21.6028 62.6569 21.4334 63.4233 21.0946C64.2122 20.7332 64.9447 20.2476 65.6209 19.6378C66.3196 19.0279 66.9508 18.3278 67.5143 17.5372C68.1003 16.7241 68.6187 15.8545 69.0695 14.9285V14.1831C68.4835 14.3864 67.796 14.5784 67.0072 14.759C66.2407 14.9172 65.4519 15.0752 64.6404 15.2334C63.829 15.3915 63.0288 15.5721 62.2399 15.7755C61.451 15.9561 60.741 16.1933 60.1099 16.4869C59.5013 16.7579 59.0054 17.0968 58.6222 17.5034C58.2391 17.9099 58.0474 18.4068 58.0474 18.994Z" fill="white"/>
<path d="M77.636 23.9073H74.627L74.6945 0.394531H77.7713L77.7036 12.1509L77.636 23.9073Z" fill="white"/>
<path d="M83.3079 23.9073H80.2988L80.3664 0.394531H83.4431L83.3079 23.9073Z" fill="white"/>
<path d="M103.763 19.0962C103.561 19.5479 103.268 20.0674 102.884 20.6546C102.502 21.2193 101.961 21.7614 101.262 22.2809C100.585 22.8004 99.7288 23.2408 98.692 23.6022C97.6551 23.9636 96.3816 24.1443 94.8715 24.1443C93.2261 24.1443 91.7947 23.9297 90.5776 23.5005C89.3605 23.0488 88.3462 22.439 87.5347 21.6711C86.7458 20.8805 86.1484 19.9545 85.7427 18.8929C85.3596 17.8313 85.168 16.6906 85.168 15.471C85.168 13.9577 85.4385 12.6477 85.9795 11.541C86.5204 10.4116 87.2191 9.48553 88.0756 8.76275C88.9547 8.01739 89.9465 7.46401 91.051 7.10263C92.1554 6.74124 93.2711 6.56055 94.3982 6.56055C95.5928 6.56055 96.7648 6.75253 97.9144 7.13651C99.0864 7.4979 100.112 8.07386 100.991 8.86439C101.893 9.65493 102.592 10.6601 103.087 11.8797C103.606 13.0768 103.82 14.511 103.729 16.1825L88.2785 16.2163C88.3011 16.9843 88.4589 17.6958 88.7519 18.3508C89.0674 18.9832 89.5069 19.5366 90.0705 20.011C90.6565 20.4852 91.3439 20.858 92.1328 21.129C92.9443 21.3774 93.8572 21.5016 94.8715 21.5016C95.8632 21.5016 96.6973 21.3774 97.3734 21.129C98.0722 20.8805 98.6469 20.5869 99.0977 20.2481C99.5484 19.8867 99.8983 19.514 100.146 19.1301C100.417 18.7235 100.619 18.3734 100.754 18.0798L103.763 19.0962ZM94.4657 9.16931C93.7445 9.16931 93.0345 9.27095 92.3357 9.47423C91.6595 9.67751 91.0397 9.98243 90.4762 10.389C89.9126 10.7955 89.428 11.315 89.0223 11.9475C88.6392 12.5573 88.3913 13.2688 88.2785 14.082H100.788C100.721 13.2462 100.484 12.5234 100.079 11.9136C99.6723 11.3037 99.1649 10.7955 98.5568 10.389C97.9708 9.98243 97.3171 9.67751 96.5958 9.47423C95.8745 9.27095 95.1645 9.16931 94.4657 9.16931Z" fill="white"/>
<path d="M109.346 23.9073H106.336L106.404 0.394531H109.48L109.346 23.9073Z" fill="white"/>
</g>
<defs>
<clipPath id="clip0_8005_20">
<rect width="110" height="31.7117" fill="white" transform="translate(0 0.394531)"/>
</clipPath>
</defs>
</svg>
